<?xml version="1.0" encoding="utf-8"?>
<!-- Generator: Adobe Illustrator 24.0.2, SVG Export Plug-In . SVG Version: 6.00 Build 0)  -->
<svg version="1.1" id="Logo" xmlns="http://www.w3.org/2000/svg" xmlns:xlink="http://www.w3.org/1999/xlink" x="0px" y="0px"
	 viewBox="0 0 653.12 525.41" style="enable-background:new 0 0 653.12 525.41;" xml:space="preserve">
<style type="text/css">
	.st0{fill:none;}
	.st1{display:none;}
	.st2{fill:#FFFFFF;}
</style>
<path id="SVGID_x5F_1_x5F_" class="st0" d="M-39.21,462.33c52.53,23.15,242.32,99.16,468.47,30.78
	c164.31-49.68,265.34-150.64,307.73-198.63"/>
<text class="st1"><textPath  xlink:href="#SVGID_x5F_1_x5F_" startOffset="7.793%"  style="display:inline;">
<tspan  style="font-family:'LeagueSpartan-Bold'; font-size:113.8325px;">XCSMEDIA</tspan></textPath>
</text>
<g>
	<path class="st2" d="M225.75,240.72l-25.29-36.44l-25.29,36.44h-30.22l40.46-57.58l-33.72-49.41h29.05l19.71,29.18l19.71-29.18
		h30.35l-35.02,49.41l41.76,57.58H225.75z"/>
	<path class="st2" d="M276.33,263.28l32.15,64.3c-89.77,71.86-290.29,12.25-288.54-140.67C18.04,33.44,218.1-27.23,308.48,45.06
		l-32.15,64.3c-64.45-49.24-178.68-4.91-174.41,76.76C97.59,268.21,211.83,312.55,276.33,263.28z"/>
	<path class="st2" d="M606.81,301.45l-60.28-30.54c0,0,22.91-32.95,22.91-67.11c0-25.72-11.65-39.38-29.74-39.38
		c-18.49,0-31.75,31.35-47.82,69.12c-50.32,131.57-205.98,81.62-197.32-47.43c0-77.56,43.8-124.58,43.8-124.58l63.5,37.78
		c0,0-37.37,44.21-37.37,81.18c0,16.48,1.61,47.82,32.55,47.82c24.11,0,34.96-35.37,54.66-74.75
		c48.83-111.74,189.53-57.91,186.47,45.02C638.15,258.85,606.81,301.45,606.81,301.45z"/>
	<path class="st2" d="M144.93,429.36h-0.77l-26.03,74.56h-17.25l-26.03-74.56h-0.77l-6.01,75.33H39.1l11.4-127.09h30.81l28.19,73.33
		l28.19-73.33h30.81l11.4,127.09h-28.96L144.93,429.36z"/>
	<path class="st2" d="M229.14,436.45c1.61,28.74,36.6,27.87,49.99,10.38l27.11,13.56c-27.97,49.73-117.85,29.9-116.07-29.02
		c0.32-75.66,125.92-78.21,117.77,5.09H229.14z M271.5,415.69c-2.05-24.36-41.13-22.28-41.3,0H271.5z"/>
	<path class="st2" d="M358.93,384.21c10.63,0,19.41,3.54,25.88,9.86v-61h27.27v132.48h-26.96v-8.94h-0.31
		c-5.85,6.47-15.1,11.25-25.88,11.25C307.13,468.28,307.27,383.84,358.93,384.21z M367.09,444.6c24.42,0.49,23.78-37.6,0-37.13
		C343.22,406.93,342.25,445.19,367.09,444.6z"/>
	<path class="st2" d="M471.73,343.38c-0.49,28.51-42.9,28.51-43.38,0C428.83,314.86,471.25,314.87,471.73,343.38z M431.24,493.13
		h36.56V387.17h-36.56V493.13z"/>
	<path class="st2" d="M537.93,336.11c14.62,0,26.69,4.87,35.59,13.56v-10.38H611v108.66h-37.07v-12.29h-0.42
		c-8.05,8.9-20.76,15.46-35.59,15.46C466.71,451.71,466.9,335.61,537.93,336.11z M549.15,419.15c33.58,0.67,32.69-51.7,0-51.05
		C516.33,367.36,515,419.96,549.15,419.15z"/>
</g>
</svg>
